<svg width="100" height="100" viewBox="0 0 100 100" fill="none" xmlns="http://www.w3.org/2000/svg">
<g clip-path="url(#clip0_141_2)">
<rect width="100" height="100" rx="50" fill="#0A0B0D"/>
<g filter="url(#filter0_d_141_2)">
<path d="M64.7767 13.3165C65.2216 13.5789 65.5658 13.9871 65.7532 14.4743C65.9407 14.9615 65.9601 15.4989 65.8085 15.9989L57.6224 43.0628H72.7264C73.1703 43.0627 73.6045 43.1947 73.9755 43.4428C74.3464 43.6908 74.6378 44.0439 74.8138 44.4585C74.9898 44.8732 75.0425 45.3312 74.9656 45.7759C74.8887 46.2207 74.6854 46.6329 74.3809 46.9615L38.0186 86.2718C37.6668 86.6524 37.1986 86.9006 36.6904 86.9759C36.1821 87.0512 35.6638 86.9491 35.2199 86.6862C34.7761 86.4234 34.4327 86.0153 34.246 85.5285C34.0592 85.0417 34.04 84.5049 34.1915 84.0056L42.3775 56.937H27.2736C26.8297 56.9372 26.3955 56.8051 26.0245 56.5571C25.6536 56.3091 25.3622 55.956 25.1862 55.5413C25.0102 55.1267 24.9575 54.6687 25.0344 54.2239C25.1113 53.7791 25.3146 53.367 25.6191 53.0384L61.9814 13.7281C62.3328 13.348 62.8003 13.0999 63.3078 13.0244C63.8153 12.9488 64.333 13.0501 64.7767 13.3119V13.3165ZM32.5325 52.3123H45.4547C45.8104 52.3122 46.1611 52.3971 46.4786 52.5601C46.7962 52.723 47.0717 52.9596 47.2831 53.2506C47.4944 53.5417 47.6356 53.8792 47.6954 54.2359C47.7552 54.5926 47.7319 54.9586 47.6274 55.3045L41.4094 75.8522L67.463 47.6876H54.5453C54.1896 47.6876 53.8389 47.6028 53.5214 47.4398C53.2038 47.2768 52.9283 47.0403 52.7169 46.7493C52.5056 46.4582 52.3644 46.1207 52.3046 45.764C52.2448 45.4073 52.2681 45.0413 52.3726 44.6954L58.5906 24.1477L32.5325 52.3123Z" fill="#F5A623"/>
</g>
</g>
<defs>
<filter id="filter0_d_141_2" x="17" y="5" width="66" height="90" filterUnits="userSpaceOnUse" color-interpolation-filters="sRGB">
<feFlood flood-opacity="0" result="BackgroundImageFix"/>
<feColorMatrix in="SourceAlpha" type="matrix" values="0 0 0 0 0 0 0 0 0 0 0 0 0 0 0 0 0 0 127 0" result="hardAlpha"/>
<feOffset/>
<feGaussianBlur stdDeviation="4"/>
<feComposite in2="hardAlpha" operator="out"/>
<feColorMatrix type="matrix" values="0 0 0 0 0.991981 0 0 0 0 0.74356 0 0 0 0 0.331623 0 0 0 1 0"/>
<feBlend mode="normal" in2="BackgroundImageFix" result="effect1_dropShadow_141_2"/>
<feBlend mode="normal" in="SourceGraphic" in2="effect1_dropShadow_141_2" result="shape"/>
</filter>
<clipPath id="clip0_141_2">
<rect width="100" height="100" fill="white"/>
</clipPath>
</defs>
</svg>
